PathFileType	4	(X/Y/Z)	C:\Users\Biomechanik\SynologyDrive\AlexP\Athlete_03\Athlete_3_25_03_31\Squat_35kg_01\marker_experimental.trc
DataRate	CameraRate	NumFrames	NumMarkers	Units	OrigDataRate	OrigDataStartFrame	OrigNumFrames
200.000000	200.000000	4	55	mm	200.000000	484	646
Frame#	Time	BL			BR			GLAB			RFHD			LFHD			C7			T6			SPINMOL			SPINM2			SPINM3			T12			BELTOL			BELT2			BELT3			SACROL			SACR2			SACR3			LTHOL			LTH2			LTH3			LSHAOL			LSHA2			LSHA3			LHEE			LTOE			LM5			RTHOL			RTH2			RTH3			RSHAOL			RSHA2			RSHA3			RHEE			RTOE			RM5			STRN			XIPH			LACR			LUAOL			LUA2			LUA3			LLAOL			LLA2			LLA3			LWRR			LWRU			RACR			RUAOL			RUA2			RUA3			RLAOL			RLA2			RLA3			RWRR			RWRU			
		X1	Y1	Z1	X2	Y2	Z2	X3	Y3	Z3	X4	Y4	Z4	X5	Y5	Z5	X6	Y6	Z6	X7	Y7	Z7	X8	Y8	Z8	X9	Y9	Z9	X10	Y10	Z10	X11	Y11	Z11	X12	Y12	Z12	X13	Y13	Z13	X14	Y14	Z14	X15	Y15	Z15	X16	Y16	Z16	X17	Y17	Z17	X18	Y18	Z18	X19	Y19	Z19	X20	Y20	Z20	X21	Y21	Z21	X22	Y22	Z22	X23	Y23	Z23	X24	Y24	Z24	X25	Y25	Z25	X26	Y26	Z26	X27	Y27	Z27	X28	Y28	Z28	X29	Y29	Z29	X30	Y30	Z30	X31	Y31	Z31	X32	Y32	Z32	X33	Y33	Z33	X34	Y34	Z34	X35	Y35	Z35	X36	Y36	Z36	X37	Y37	Z37	X38	Y38	Z38	X39	Y39	Z39	X40	Y40	Z40	X41	Y41	Z41	X42	Y42	Z42	X43	Y43	Z43	X44	Y44	Z44	X45	Y45	Z45	X46	Y46	Z46	X47	Y47	Z47	X48	Y48	Z48	X49	Y49	Z49	X50	Y50	Z50	X51	Y51	Z51	X52	Y52	Z52	X53	Y53	Z53	X54	Y54	Z54	X55	Y55	Z55	

485	2.42	234.8379364013672	929.3591918945314	-2213.205810546875	237.7327575683594	913.7088623046875	-192.6228942871093	511.0863647460938	1102.365234375	-1170.693725585938	458.8858032226562	1123.344116210938	-1107.603393554688	466.9806213378906	1124.76025390625	-1243.595092773438	283.6068725585938	982.9547729492189	-1181.814086914062	162.1334228515625	868.7998046875001	-1192.316528320312	144.5553588867188	848.7150878906251	-1210.4404296875	134.1113891601562	842.4268798828126	-1161.663330078125	106.9874649047852	795.3060913085939	-1199.428344726562	82.55036926269531	754.2063598632814	-1200.317260742188	47.24595642089844	751.0080566406251	-1214.965942382812	43.75139999389648	747.6098022460939	-1164.678100585938	3.841264963150024	704.6261596679689	-1196.257934570312	-74.13302612304688	612.5924072265626	-1224.001220703125	-73.69760894775391	611.8990478515626	-1172.485229492188	-91.67434692382812	553.6784667968751	-1198.62548828125	109.6101455688477	450.6692199707032	-1491.659912109375	143.2209930419922	382.5882263183595	-1513.691772460938	159.0541076660156	429.7291259765626	-1521.58447265625	207.7579956054688	303.2069091796876	-1607.809692382812	146.3217010498047	259.7319946289064	-1581.123291015625	191.6531982421875	244.3896942138673	-1597.126708984375	77.96666717529297	70.5425338745118	-1488.26318359375	283.7961120605469	49.38322448730478	-1545.649536132812	216.2818603515625	23.59551048278819	-1634.579223632812	87.36873626708984	441.4735412597657	-901.3971557617188	142.6815643310547	483.3367004394532	-861.415771484375	139.6577606201172	434.1438903808594	-867.8323974609375	179.9180603027344	321.0957031250001	-785.7487182617188	184.7507629394531	242.447494506836	-782.2459716796875	149.1583862304688	269.6895751953126	-803.593505859375	56.21486282348633	66.74683380126959	-914.70068359375	251.1323547363281	47.55545043945317	-833.316650390625	168.5936431884766	34.81514358520513	-754.6226806640625	395.822998046875	821.9085693359376	-1187.817749023438	352.95947265625	679.2269287109376	-1188.992919921875	319.3129577636719	940.6781616210939	-1347.014404296875	189.2096557617188	856.3828735351564	-1437.997802734375	135.0516967773438	820.7451782226564	-1428.205810546875	161.7689056396484	806.3267211914064	-1469.278930664062	121.9083633422852	744.6866455078126	-1540.020874023438	190.4828796386719	730.3555297851564	-1578.433715820312	167.733642578125	775.5113525390626	-1565.87939453125	232.672607421875	849.3206787109376	-1600.445434570312	256.7687377929688	865.7570190429689	-1526.05517578125	324.9803161621094	931.1008911132814	-1028.750122070312	200.0137786865234	844.3261108398439	-944.6690673828125	165.2283325195312	796.3949584960938	-914.9348754882812	145.1283264160156	811.9497070312501	-960.7178955078125	140.124755859375	725.4122924804688	-829.8803100585938	157.5889892578125	802.395751953125	-816.0567626953125	184.2434844970703	761.236328125	-803.8421630859375	230.4674530029297	839.1112060546875	-779.1148681640625	264.6479797363281	866.2861938476562	-846.9827880859375	
486	2.425	234.8557281494141	934.0322265625001	-2213.151123046875	237.5821838378906	918.74169921875	-192.5655670166015	511.0095520019531	1107.307739257812	-1170.800048828125	458.8464050292969	1128.269287109375	-1107.692016601562	466.8599243164062	1129.712036132812	-1243.655517578125	283.5407409667969	987.8269653320314	-1181.843505859375	162.1048278808594	873.5277099609376	-1192.330810546875	144.5033721923828	853.3900756835939	-1210.441284179688	134.0585174560547	847.1285400390626	-1161.64404296875	107.0434799194336	799.9120483398439	-1199.392700195312	82.57308959960938	758.6166381835939	-1200.244873046875	47.26486968994141	755.4390869140626	-1214.889282226562	43.77619171142578	752.0731811523439	-1164.59521484375	3.761104583740234	709.1486816406251	-1196.183227539062	-73.88067626953125	617.8804321289064	-1223.796997070312	-73.44023895263672	617.1747436523439	-1172.284912109375	-91.64852905273438	559.0257568359376	-1198.431518554688	109.044921875	453.6083374023439	-1491.426879882812	142.0568695068359	385.082000732422	-1513.02880859375	158.3108520507812	432.0613403320314	-1521.178588867188	207.1633605957031	303.5328674316407	-1607.51123046875	145.8352813720703	259.8601684570314	-1580.904296875	191.2149963378906	244.6546325683595	-1596.912841796875	77.91464996337891	70.52625274658212	-1488.322387695312	283.7695617675781	49.41720581054697	-1545.697143554688	216.2756652832031	23.56991767883311	-1634.5986328125	86.78630065917969	444.6420898437501	-901.5069580078125	142.5069427490234	485.7270202636719	-861.3070678710938	139.0283813476562	436.6069030761719	-868.0385131835938	179.2675476074219	321.4712524414063	-786.0681762695312	184.2397003173828	242.8358154296876	-782.4097900390625	148.6053161621094	269.9677429199219	-803.8303833007812	56.1439208984375	66.75225067138678	-914.6273803710938	251.0906677246094	47.52542114257817	-833.31982421875	168.5654754638672	34.77247238159185	-754.5724487304688	395.8451538085938	826.8365478515626	-1187.8515625	353.0050354003906	684.1185302734376	-1189.030883789062	319.2109985351562	945.4787597656251	-1347.066284179688	189.1116333007812	861.1350708007814	-1437.9892578125	134.9710540771484	825.4769897460939	-1428.173095703125	161.6913299560547	811.0607299804689	-1469.24560546875	121.8551712036133	749.4194335937501	-1540.001953125	190.4294128417969	735.1151733398439	-1578.389038085938	167.6876678466797	780.2520141601564	-1565.836059570312	232.6192779541016	854.0761108398439	-1600.377075195312	256.728759765625	870.4985351562501	-1525.984741210938	324.9252624511719	935.9588623046876	-1028.760131835938	199.8332214355469	849.2656860351564	-944.7781982421875	164.9830017089844	801.3603515625	-915.0785522460938	144.9316101074219	816.9313354492189	-960.8768920898438	139.7509613037109	730.3978881835938	-830.0215454101562	157.3184967041016	807.3462524414062	-816.167724609375	183.8976287841797	766.1608276367188	-803.93701171875	230.2263336181641	843.9474487304688	-779.1376342773438	264.4594421386719	871.1134643554688	-846.9859008789062	
487	2.43	234.8505401611328	938.7730712890626	-2213.0986328125	237.4029083251953	923.8594360351562	-192.510025024414	510.9266662597656	1112.342529296875	-1170.909545898438	458.796630859375	1133.291625976562	-1107.786254882812	466.7378845214844	1134.749267578125	-1243.723510742188	283.4656982421875	992.7744750976564	-1181.875244140625	162.0800933837891	878.3265991210939	-1192.350463867188	144.4573516845703	858.1384277343751	-1210.448486328125	134.0080718994141	851.9022827148439	-1161.635986328125	107.1047897338867	804.5914916992189	-1199.364624023438	82.59893035888672	763.1009521484376	-1200.1689453125	47.2906494140625	759.9368286132814	-1214.809326171875	43.80519866943359	756.6051025390626	-1164.510009765625	3.685607194900513	713.7369995117189	-1196.107543945312	-73.59879302978516	623.1726684570314	-1223.602416992188	-73.15137481689453	622.4572143554689	-1172.092407226562	-91.58758544921875	564.3777465820314	-1198.244873046875	108.4982604980469	456.5634155273439	-1491.183959960938	140.9082946777344	387.5965881347657	-1512.345825195312	157.5766448974609	434.4087524414064	-1520.763305664062	206.5568695068359	303.8642578125001	-1607.212158203125	145.3383178710938	259.9928588867189	-1580.68359375	190.7657775878906	244.9248504638673	-1596.700317382812	77.86164093017578	70.51014709472665	-1488.384521484375	283.7442016601562	49.45268630981455	-1545.744873046875	216.2694549560547	23.54199600219737	-1634.619140625	86.20767211914062	447.8285827636719	-901.6123046875	142.3206176757812	488.1268615722657	-861.18505859375	138.3898468017578	439.0863952636719	-868.23583984375	178.6020202636719	321.8381958007813	-786.3551635742188	183.7189025878906	243.2157745361329	-782.55078125	148.0406036376953	270.2383422851563	-804.0397338867188	56.07536315917969	66.75923156738287	-914.556396484375	251.0511932373047	47.49177932739263	-833.3291625976562	168.5382690429688	34.73061752319341	-754.5232543945312	395.8736572265625	831.8567504882814	-1187.881591796875	353.0670776367188	689.0978393554689	-1189.0595703125	319.0955810546875	950.3676757812501	-1347.114868164062	189.0318756103516	865.9356079101564	-1437.994384765625	134.9191284179688	830.2393798828126	-1428.15869140625	161.6505126953125	815.8351440429689	-1469.227905273438	121.8622894287109	754.1817626953126	-1540.001708984375	190.4404602050781	739.9290771484376	-1578.362426757812	167.69140625	785.0385131835939	-1565.809814453125	232.5855865478516	858.9047851562501	-1600.31884765625	256.6961975097656	875.3220825195314	-1525.923583984375	324.8581848144531	940.9100952148439	-1028.766357421875	199.6610565185547	854.2715454101564	-944.8851928710938	164.7525482177734	806.3873901367188	-915.22021484375	144.7472534179688	821.9717407226564	-961.0343627929688	139.4005584716797	735.439697265625	-830.1626586914062	157.0482482910156	812.3568725585938	-816.2788696289062	183.5676574707031	771.1494140625	-804.0314331054688	229.9827270507812	848.858642578125	-779.1586303710938	264.2659912109375	876.0218505859375	-846.9859619140625	
488	2.435	234.8226165771484	943.5812988281251	-2213.049072265625	237.1953125	929.0596923828125	-192.4571380615234	510.8367309570312	1117.468139648438	-1171.0205078125	458.7342224121094	1138.410400390625	-1107.8857421875	466.6137390136719	1139.869506835938	-1243.79833984375	283.3805236816406	997.7951660156251	-1181.908935546875	162.0591583251953	883.1937255859376	-1192.374755859375	144.4170379638672	862.9574584960939	-1210.461547851562	133.9597320556641	856.7456054687501	-1161.638916015625	107.1717071533203	809.3414916992189	-1199.34326171875	82.62799072265625	767.6569824218751	-1200.088989257812	47.32360076904297	764.4981689453126	-1214.725830078125	43.83895111083984	761.2018432617189	-1164.422729492188	3.61718487739563	718.3866577148439	-1196.029541015625	-73.28684234619141	628.4634399414064	-1223.420043945312	-72.83156585693359	627.7416381835939	-1171.909057617188	-91.49150848388672	569.7297973632814	-1198.066650390625	107.9672622680664	459.5355224609376	-1490.931030273438	139.77197265625	390.1333007812501	-1511.644409179688	156.8487396240234	436.7716064453126	-1520.33984375	205.9360046386719	304.201385498047	-1606.913452148438	144.8284759521484	260.1300659179689	-1580.462158203125	190.3033599853516	245.2005767822266	-1596.490234375	77.80719757080078	70.49401855468759	-1488.450317382812	283.7196655273438	49.4900665283204	-1545.793334960938	216.2631378173828	23.51150894165049	-1634.641357421875	85.63299560546875	451.0293884277344	-901.7133178710938	142.1221008300781	490.5328979492188	-861.0493774414062	137.7426910400391	441.5790710449219	-868.4247436523438	177.9223022460938	322.1944580078126	-786.6087036132812	183.1907958984375	243.5854492187501	-782.6705932617188	147.4651489257812	270.4992370605469	-804.2205200195312	56.00897979736328	66.76660156250006	-914.4879150390625	251.0138854980469	47.45592117309575	-833.3428955078125	168.5120239257812	34.68980789184575	-754.4751586914062	395.9081115722656	836.9667358398439	-1187.906372070312	353.1463623046875	694.1627197265626	-1189.078857421875	318.9674072265625	955.3428344726564	-1347.159057617188	188.9690246582031	870.7844848632814	-1438.011962890625	134.8941345214844	835.0329589843751	-1428.161010742188	161.6443939208984	820.6503295898439	-1469.224487304688	121.9267578125	758.9741821289064	-1540.018432617188	190.5136871337891	744.7958984375001	-1578.353271484375	167.7420349121094	789.8704833984376	-1565.799682617188	232.5699005126953	863.8050537109376	-1600.2705078125	256.6704711914062	880.2256469726564	-1525.871704101562	324.7785949707031	945.9523315429689	-1028.769165039062	199.4972686767578	859.3404541015626	-944.989501953125	164.5382232666016	811.4723510742188	-915.358642578125	144.5760040283203	827.0664672851564	-961.1890258789062	139.0767059326172	740.5338745117188	-830.3021240234375	156.7782745361328	817.4252319335938	-816.3900146484375	183.2563323974609	776.1991577148438	-804.1245727539062	229.7379760742188	853.8432006835938	-779.1782836914062	264.0684509277344	881.0097045898438	-846.9835815429688	
